# xmcd
#
# Track frame offsets:
#	150
#	23940
#	46757
#	72065
#	111535
#	140810
#	156440
#	194917
#	212765
#	239035
#	287240
#
# Disc length: 4183 seconds
#
# Revision: 1
# Processed by: cddbd v1.5.1PL0 Copyright (c) Steve Scherf et al.
# Submitted via: audiograbber 1.83.01
#
DISCID=b710550b
DTITLE=Guy Forsyth Band - High Temperature
DYEAR=1996
DGENRE=Blues
TTITLE0=Don't turn me in
TTITLE1=305
TTITLE2=Taxi
TTITLE3=For the last time
TTITLE4=Hard pushin' papa
TTITLE5=Done somebody wrong
TTITLE6=Evil man
TTITLE7=Night train
TTITLE8=Serves me right
TTITLE9=19 years
TTITLE10=Mr. Luck
EXTD=
EXTT0=
EXTT1=
EXTT2=
EXTT3=
EXTT4=
EXTT5=
EXTT6=
EXTT7=
EXTT8=
EXTT9=
EXTT10=
PLAYORDER=
